# xmcd
#
# Track frame offsets:
#       150
#       19578
#       38327
#       58612
#       76890
#       95597
#       110647
#       125798
#       144393
#       162682
#       174284
#       186927
#       201994
#       214017
#
# Disc length: 3022 seconds
#
# Revision: 0
# Processed by: cddbd v1.5.2PL0 Copyright (c) Steve Scherf et al.
# Submitted via: WaveLab 4.01
#
DISCID=c20bcc0e
DTITLE=Duo Barcelo - The Cuban Tres Guitar
DYEAR=1900
DGENRE=
TTITLE0=Tierra
TTITLE1=Espacio
TTITLE2=Yolanda
TTITLE3=Hasta Siempre
TTITLE4=Moliendo Café
TTITLE5=Vacilón
TTITLE6=Sorpresa Y Lamento
TTITLE7=El Cuerto De Tula
TTITLE8=La Paloma
TTITLE9=Quizás Quizás
TTITLE10=Bésame Mucho
TTITLE11=Guantanamera
TTITLE12=Dos Gardenias
TTITLE13=Chan Chan
EXTD=
EXTT0=
EXTT1=
EXTT2=
EXTT3=
EXTT4=
EXTT5=
EXTT6=
EXTT7=
EXTT8=
EXTT9=
EXTT10=
EXTT11=
EXTT12=
EXTT13=
PLAYORDER=
